<svg data-name="Capa 1" xmlns="http://www.w3.org/2000/svg" viewBox="0 0 220.8 220.8"><path d="M205.4 220.8h-190a4 4 0 0 1-4-4V42a4 4 0 0 1 2.52-3.71l95-38A4 4 0 0 1 114.4 4v76.1l89.52-35.81a4 4 0 0 1 3.73.4A4 4 0 0 1 209.4 48v168.8a4 4 0 0 1-4 4Zm-91-8h87V53.91l-87 34.8Zm-95 0h87V9.91l-87 34.8Zm165.34-11a4 4 0 0 1-4-4v-35.59H161.9v35.62a4 4 0 0 1-8 0v-35.62h-18.83v35.62a4 4 0 0 1-8 0V104.5a4 4 0 0 1 8 0v15.13h18.83V91.84a4 4 0 0 1 8 0v27.79h18.84V82.25a4 4 0 0 1 8 0v115.58a4 4 0 0 1-4 4Zm-22.84-47.59h18.83v-26.58H161.9v26.58Zm-26.83 0h18.83v-26.58h-18.83Zm-45.33 47.62a4 4 0 0 1-4-4V162H66.9v35.83a4 4 0 0 1-8 0V162H40.07v35.83a4 4 0 0 1-8 0V61.67a4 4 0 0 1 8 0v23.16H58.9V49a4 4 0 0 1 8 0v35.83h18.84V39.42a4 4 0 0 1 8 0v158.41a4 4 0 0 1-4 4ZM66.9 154h18.84v-26.58H66.9Zm-26.83 0H58.9v-26.58H40.07Zm26.83-34.58h18.84V92.83H66.9Zm-26.83 0H58.9V92.83H40.07Z" style="fill:#fff"/></svg>